<svg width="60" height="68" viewBox="0 0 60 68" fill="none" xmlns="http://www.w3.org/2000/svg">
<path d="M30.51 56.523C30.5041 56.6516 30.4488 56.7729 30.3557 56.8618C30.2625 56.9506 30.1387 57.0001 30.01 57C29.72 57 29.5 56.79 29.49 56.523C29.345 53.355 27.734 51.306 24.658 50.376C14.53 47.968 7 38.863 7 28C7 15.297 17.297 5 30 5C42.703 5 53 15.297 53 28C53 38.863 45.47 47.968 35.342 50.376C32.266 51.306 30.655 53.356 30.512 56.523H30.51Z" fill="#E63946"/>
<path d="M30 68C27.79 68 26 66.21 26 64C26 61.79 27.79 60 30 60C32.21 60 34 61.79 34 64C34 66.21 32.21 68 30 68Z" fill="white"/>
<path fill-rule="evenodd" clip-rule="evenodd" d="M30 66C30.2664 66.006 30.5312 65.9588 30.779 65.861C31.0269 65.7633 31.2527 65.617 31.4432 65.4308C31.6337 65.2446 31.7851 65.0222 31.8885 64.7767C31.9919 64.5311 32.0452 64.2674 32.0452 64.001C32.0453 63.7346 31.9921 63.4709 31.8889 63.2253C31.7856 62.9797 31.6343 62.7572 31.4439 62.5709C31.2535 62.3846 31.0277 62.2382 30.78 62.1404C30.5322 62.0425 30.2674 61.9951 30.001 62.001C29.4784 62.0126 28.9812 62.2282 28.6156 62.6018C28.2501 62.9755 28.0454 63.4773 28.0452 64C28.0451 64.5227 28.2496 65.0247 28.6149 65.3985C28.9803 65.7723 29.4775 65.9882 30 66V66Z" fill="#E63946"/>
</svg>